<svg width="546" height="336" viewBox="0 0 546 336" fill="none" xmlns="http://www.w3.org/2000/svg">
<g clip-path="url(#clip0_6840_53290)">
<path d="M334.66 86.8105C333.83 86.9105 333 87.0005 332.18 87.0905" stroke="#29BAA3" stroke-miterlimit="10"/>
<path d="M127.949 223.961C127.119 224.041 126.289 224.071 125.449 224.041" stroke="#29BAA3" stroke-miterlimit="10"/>
<path d="M335.801 265.132C335.801 265.132 467.361 265.132 477.021 265.132C486.351 254.902 487.361 241.812 477.021 234.102C467.091 234.102 335.801 234.102 335.801 234.102V237.812H340.271V260.972H335.801V265.132Z" fill="#0091A2"/>
<path d="M340.279 260.973C340.279 260.973 465.309 260.973 474.379 260.973C480.839 255.843 481.029 242.512 474.379 237.812C465.049 237.812 340.279 237.812 340.279 237.812V260.973Z" fill="white"/>
<path opacity="0.2" d="M470.979 242.132C462.569 242.132 360.329 242.132 340.279 242.132V237.812C340.279 237.812 465.059 237.812 474.379 237.812C481.029 242.512 480.839 255.843 474.379 260.973C474.349 260.973 474.319 260.973 474.279 260.973C477.199 254.793 476.189 245.812 470.979 242.132Z" fill="#231F20"/>
<path d="M469.09 246.701C460.65 247.091 452.2 247.351 443.76 247.481C435.32 247.641 426.87 247.681 418.43 247.701C409.99 247.681 401.54 247.641 393.1 247.481C384.66 247.351 376.21 247.091 367.77 246.701C376.21 246.311 384.66 246.051 393.1 245.921C401.54 245.761 409.99 245.721 418.43 245.701C426.87 245.721 435.32 245.761 443.76 245.921C452.2 246.061 460.64 246.321 469.09 246.701Z" fill="#DFDBDA"/>
<path d="M454.34 253.711C445.9 254.101 437.45 254.361 429.01 254.491C420.57 254.651 412.12 254.691 403.68 254.711C395.24 254.691 386.79 254.651 378.35 254.491C369.91 254.361 361.46 254.101 353.02 253.711C361.46 253.321 369.91 253.061 378.35 252.931C386.79 252.771 395.24 252.731 403.68 252.711C412.12 252.731 420.57 252.771 429.01 252.931C437.45 253.061 445.9 253.321 454.34 253.711Z" fill="#DFDBDA"/>
<path d="M475.33 203.182C475.33 203.182 343.77 203.182 334.11 203.182C324.78 192.952 323.77 179.862 334.11 172.152C344.04 172.152 475.33 172.152 475.33 172.152V175.862H470.86V199.022H475.33V203.182Z" fill="#00A1DD"/>
<path d="M470.86 199.031C470.86 199.031 345.83 199.031 336.76 199.031C330.3 193.901 330.11 180.571 336.76 175.871C346.09 175.871 470.86 175.871 470.86 175.871V199.031Z" fill="white"/>
<path opacity="0.2" d="M340.16 180.181C348.57 180.181 450.81 180.181 470.86 180.181V175.861C470.86 175.861 346.08 175.861 336.76 175.861C330.11 180.561 330.3 193.891 336.76 199.021C336.79 199.021 336.82 199.021 336.86 199.021C333.94 192.841 334.95 183.871 340.16 180.181Z" fill="#231F20"/>
<path d="M342.051 184.762C350.491 184.372 358.941 184.112 367.381 183.982C375.821 183.822 384.271 183.782 392.711 183.762C401.151 183.782 409.601 183.822 418.041 183.982C426.481 184.112 434.931 184.372 443.371 184.762C434.931 185.152 426.481 185.412 418.041 185.542C409.601 185.702 401.151 185.742 392.711 185.762C384.271 185.742 375.821 185.702 367.381 185.542C358.931 185.402 350.491 185.142 342.051 184.762Z" fill="#DFDBDA"/>
<path d="M356.791 191.762C365.231 191.372 373.681 191.112 382.121 190.982C390.561 190.822 399.011 190.782 407.451 190.762C415.891 190.782 424.341 190.822 432.781 190.982C441.221 191.112 449.671 191.372 458.111 191.762C449.671 192.152 441.221 192.412 432.781 192.542C424.341 192.702 415.891 192.742 407.451 192.762C399.011 192.742 390.561 192.702 382.121 192.542C373.681 192.412 365.241 192.152 356.791 191.762Z" fill="#DFDBDA"/>
<path d="M341.35 296.151C341.35 296.151 472.91 296.151 482.57 296.151C491.9 285.921 492.91 272.831 482.57 265.131C472.64 265.131 341.35 265.131 341.35 265.131V268.841H345.82V292.001H341.35V296.151Z" fill="#EEAF35"/>
<path d="M324.461 296.151C324.461 296.151 456.021 296.151 465.681 296.151C475.011 285.921 476.021 272.831 465.681 265.131C455.751 265.131 324.461 265.131 324.461 265.131V268.841H328.931V292.001H324.461V296.151Z" fill="#FFDB49"/>
<path d="M328.93 292.002C328.93 292.002 453.96 292.002 463.03 292.002C469.49 286.872 469.68 273.542 463.03 268.842C453.7 268.842 328.93 268.842 328.93 268.842V292.002Z" fill="white"/>
<path opacity="0.2" d="M459.63 273.162C451.22 273.162 348.98 273.162 328.93 273.162V268.842C328.93 268.842 453.71 268.842 463.03 268.842C469.68 273.542 469.49 286.872 463.03 292.002C463 292.002 462.97 292.002 462.93 292.002C465.85 285.822 464.84 276.842 459.63 273.162Z" fill="#231F20"/>
<path d="M457.74 277.732C449.3 278.122 440.85 278.382 432.41 278.512C423.97 278.672 415.52 278.712 407.08 278.732C398.64 278.712 390.19 278.672 381.75 278.512C373.31 278.382 364.86 278.122 356.42 277.732C364.86 277.342 373.31 277.082 381.75 276.952C390.19 276.792 398.64 276.752 407.08 276.732C415.52 276.752 423.97 276.792 432.41 276.952C440.85 277.082 449.3 277.342 457.74 277.732Z" fill="#DFDBDA"/>
<path d="M443 284.742C434.56 285.132 426.11 285.392 417.67 285.522C409.23 285.682 400.78 285.722 392.34 285.742C383.9 285.722 375.45 285.682 367.01 285.522C358.57 285.392 350.12 285.132 341.68 284.742C350.12 284.352 358.57 284.092 367.01 283.962C375.45 283.802 383.9 283.762 392.34 283.742C400.78 283.762 409.23 283.802 417.67 283.962C426.11 284.092 434.55 284.352 443 284.742Z" fill="#DFDBDA"/>
<path d="M341.221 172.462C341.221 172.462 472.781 172.462 482.441 172.462C491.771 162.232 492.781 149.142 482.441 141.432C472.511 141.432 341.221 141.432 341.221 141.432V145.142H345.691V168.302H341.221V172.462Z" fill="#3CB35E"/>
<path d="M324.33 172.462C324.33 172.462 455.89 172.462 465.55 172.462C474.88 162.232 475.89 149.142 465.55 141.432C455.62 141.432 324.33 141.432 324.33 141.432V145.142H328.8V168.302H324.33V172.462Z" fill="#009364"/>
<path d="M328.811 168.303C328.811 168.303 453.841 168.303 462.911 168.303C469.371 163.173 469.561 149.843 462.911 145.143C453.581 145.143 328.811 145.143 328.811 145.143V168.303Z" fill="white"/>
<path opacity="0.2" d="M459.511 149.463C451.101 149.463 348.861 149.463 328.811 149.463V145.143C328.811 145.143 453.591 145.143 462.911 145.143C469.561 149.843 469.371 163.173 462.911 168.303C462.881 168.303 462.851 168.303 462.811 168.303C465.731 162.123 464.721 153.143 459.511 149.463Z" fill="#231F20"/>
<path d="M457.621 154.031C449.181 154.421 440.731 154.681 432.291 154.811C423.851 154.971 415.401 155.011 406.961 155.031C398.521 155.011 390.071 154.971 381.631 154.811C373.191 154.681 364.741 154.421 356.301 154.031C364.741 153.641 373.191 153.381 381.631 153.251C390.071 153.091 398.521 153.051 406.961 153.031C415.401 153.051 423.851 153.091 432.291 153.251C440.731 153.391 449.171 153.651 457.621 154.031Z" fill="#DFDBDA"/>
<path d="M442.871 161.041C434.431 161.431 425.981 161.691 417.541 161.821C409.101 161.981 400.651 162.021 392.211 162.041C383.771 162.021 375.321 161.981 366.881 161.821C358.441 161.691 349.991 161.431 341.551 161.041C349.991 160.651 358.441 160.391 366.881 160.261C375.321 160.101 383.771 160.061 392.211 160.041C400.651 160.061 409.101 160.101 417.541 160.261C425.981 160.391 434.431 160.651 442.871 161.041Z" fill="#DFDBDA"/>
<path d="M328.92 234.281H479.69C480.79 234.281 481.69 233.381 481.69 232.281V204.861C481.69 203.761 480.79 202.861 479.69 202.861H328.92C327.82 202.861 326.92 203.761 326.92 204.861V232.281C326.92 233.391 327.81 234.281 328.92 234.281Z" fill="#FFDB49"/>
<path opacity="0.1" d="M479.17 210.021C479.17 209.181 478.49 208.511 477.66 208.511H326.92V204.381C326.92 203.541 327.6 202.871 328.43 202.871H480.18C481.02 202.871 481.69 203.551 481.69 204.381V232.771C481.69 233.611 481.01 234.281 480.18 234.281H479.17V210.021Z" fill="#231F20"/>
<path d="M442.991 234.1H461.521V202.87H442.991V234.1Z" fill="#EEAF35"/>
<path d="M424.725 229.84H436.715V207.13H424.725V229.84Z" fill="#EEAF35"/>
<path d="M328.92 141.432H479.69C480.79 141.432 481.69 140.532 481.69 139.432V112.012C481.69 110.912 480.79 110.012 479.69 110.012H328.92C327.82 110.012 326.92 110.912 326.92 112.012V139.432C326.92 140.542 327.81 141.432 328.92 141.432Z" fill="#0091A2"/>
<path opacity="0.1" d="M479.17 117.171C479.17 116.331 478.49 115.661 477.66 115.661H326.92V111.531C326.92 110.691 327.6 110.021 328.43 110.021H480.18C481.02 110.021 481.69 110.701 481.69 111.531V139.921C481.69 140.761 481.01 141.431 480.18 141.431H479.17V117.171Z" fill="#231F20"/>
<path d="M442.991 141.256H461.521V110.026H442.991V141.256Z" fill="#386E8A"/>
<path d="M424.725 136.986H436.715V114.276H424.725V136.986Z" fill="#386E8A"/>
<path d="M218.608 291.124C221.257 294.495 225.937 296.136 230.106 295.157C234.275 294.179 237.736 290.627 238.594 286.414C239.196 283.509 238.684 280.273 240.264 277.76C241.228 276.21 242.838 275.202 244.403 274.269C261.304 264.155 279.709 256.555 299.003 251.664C297.227 248.383 297.588 244.35 298.567 240.753C299.259 238.165 300.252 235.651 301.486 233.289C302.901 230.58 304.677 228.006 304.948 224.755C275.947 212.46 247.91 197.877 221.197 181.322C217.464 183.881 212.964 185.07 208.495 185.792C204.025 186.514 199.48 186.8 195.071 187.779C188.99 189.133 183.257 191.752 177.809 194.927C170.72 198.614 164.023 203.234 158.771 209.239C153.519 215.244 149.756 222.739 148.868 230.595C142.292 230.399 135.715 230.369 129.138 230.519C126.309 230.58 123.465 230.685 120.68 231.167C110.507 232.912 101.838 239.534 94.7349 247.104C89.2719 251.514 85.2386 257.398 80.7689 262.801C76.4948 267.963 71.7692 272.749 66.6523 277.128C68.1423 279.175 69.4516 281.357 70.5803 283.614C70.6104 283.659 70.6405 283.72 70.7007 283.705C70.7458 283.69 70.6856 283.599 70.6706 283.644C72.1755 284.021 73.4397 284.999 74.8243 285.691C75.3962 285.992 75.9981 286.233 76.6001 286.489C78.075 287.136 79.5348 287.843 80.7689 288.581C104.773 299.567 125.09 317.024 145.919 333.805C168.493 317.28 192.813 302.998 218.608 291.124Z" fill="white"/>
<path d="M146.046 335.854C145.64 335.854 145.249 335.718 144.918 335.462C121.771 316.831 97.8275 297.583 69.9858 285.874C69.0677 285.483 68.6313 284.429 69.0226 283.511C69.4139 282.593 70.4673 282.157 71.3854 282.548C99.2422 294.257 123.081 313.264 146.092 331.775C167.989 315.552 192.143 301.194 217.908 289.08C218.676 288.718 219.579 288.944 220.09 289.606C222.333 292.496 226.517 293.85 230.038 292.827C233.56 291.804 236.359 288.417 236.705 284.775C236.765 284.143 236.765 283.451 236.765 282.729C236.765 280.787 236.78 278.59 238.03 276.664C238.963 275.219 240.407 274.301 241.461 273.639C259.34 262.291 278.889 254.195 299.552 249.604C300.515 249.394 301.494 249.996 301.704 250.974C301.915 251.952 301.313 252.915 300.335 253.126C280.063 257.626 260.905 265.557 243.387 276.679C242.349 277.341 241.521 277.898 241.054 278.62C240.377 279.659 240.377 281.148 240.377 282.729C240.377 283.496 240.377 284.294 240.287 285.107C239.79 290.238 235.998 294.829 231.031 296.273C226.547 297.568 221.475 296.198 218.209 292.902C192.67 305.002 168.756 319.329 147.115 335.477C146.814 335.733 146.438 335.854 146.046 335.854Z" fill="#429777"/>
<path d="M232.276 287.952C232.065 287.952 231.885 287.801 231.84 287.59C229.688 276.664 232.517 264.911 239.41 256.167C246.302 247.423 257.063 241.93 268.199 241.479C268.44 241.479 268.651 241.659 268.666 241.915C268.681 242.171 268.485 242.366 268.23 242.382C257.364 242.818 246.844 248.176 240.117 256.724C233.375 265.272 230.606 276.74 232.713 287.41C232.758 287.651 232.607 287.891 232.351 287.937C232.336 287.952 232.306 287.952 232.276 287.952Z" fill="#429777"/>
<path d="M280.241 241.282C279.654 241.282 279.082 241.266 278.495 241.236C278.239 241.221 278.059 241.011 278.059 240.77C278.074 240.529 278.254 240.303 278.525 240.333C285.96 240.665 293.62 238.798 300.061 235.051C300.272 234.931 300.558 234.991 300.678 235.217C300.799 235.427 300.723 235.713 300.513 235.834C294.433 239.37 287.299 241.282 280.241 241.282Z" fill="#429777"/>
<path d="M234.031 286.367H234.016C233.76 286.352 233.58 286.142 233.595 285.901C234.392 270.023 245.484 255.47 260.579 250.489C260.819 250.414 261.075 250.534 261.15 250.775C261.226 251.016 261.105 251.272 260.864 251.347C246.116 256.208 235.28 270.445 234.498 285.946C234.467 286.187 234.272 286.367 234.031 286.367Z" fill="#429777"/>
<path d="M285.872 246.971C285.661 246.971 285.48 246.836 285.435 246.625C285.375 246.385 285.525 246.144 285.781 246.084C289.438 245.256 293.487 244.127 297.49 242.818C297.731 242.743 297.986 242.878 298.062 243.104C298.137 243.345 298.002 243.6 297.776 243.676C293.742 244.985 289.664 246.129 285.992 246.956C285.947 246.971 285.917 246.971 285.872 246.971Z" fill="#429777"/>
<path d="M235.924 284.743C235.894 284.743 235.864 284.743 235.833 284.728C235.593 284.683 235.427 284.442 235.472 284.202C236.887 276.511 242.335 269.137 250.386 263.975C257.806 259.204 266.234 255.336 274.12 253.064C277.31 252.146 280.23 251.454 283.044 250.791C287.393 249.768 291.908 248.7 297.492 246.743C297.732 246.653 297.988 246.788 298.064 247.014C298.154 247.255 298.018 247.511 297.793 247.586C292.149 249.557 287.634 250.626 283.255 251.664C280.456 252.327 277.551 253.019 274.375 253.922C266.58 256.164 258.242 260.002 250.883 264.727C243.027 269.769 237.745 276.918 236.36 284.367C236.315 284.593 236.134 284.743 235.924 284.743Z" fill="#429777"/>
<path d="M266.952 250.175C266.741 250.175 266.545 250.025 266.515 249.799C266.47 249.558 266.636 249.317 266.891 249.287C269.329 248.881 271.572 248.565 273.724 248.249C275.876 247.933 278.118 247.617 280.541 247.211C280.797 247.165 281.023 247.331 281.053 247.587C281.098 247.828 280.933 248.068 280.677 248.098C278.239 248.505 275.996 248.821 273.844 249.137C271.692 249.453 269.45 249.769 267.027 250.175C266.997 250.175 266.982 250.175 266.952 250.175Z" fill="#429777"/>
<path d="M183.958 293.348C183.822 293.348 183.702 293.288 183.611 293.183C183.446 292.987 183.476 292.701 183.672 292.55C188.819 288.231 195.591 287.253 203.281 286.501C206.276 286.2 209.376 285.899 212.461 286.215C217.578 286.726 222.274 288.878 226.819 290.955C227.044 291.061 227.15 291.331 227.044 291.557C226.939 291.783 226.668 291.888 226.443 291.783C221.973 289.736 217.338 287.629 212.371 287.118C209.376 286.817 206.321 287.118 203.371 287.404C195.847 288.141 189.21 289.104 184.258 293.258C184.168 293.318 184.063 293.348 183.958 293.348Z" fill="#429777"/>
<path d="M141.024 324.397C140.828 324.397 140.633 324.261 140.587 324.05C140.527 323.81 140.678 323.569 140.919 323.509C148.293 321.658 154.418 316.465 159.926 311.138C160.649 310.431 161.386 309.723 162.108 309.001C166.879 304.32 171.83 299.474 177.865 296.404C178.091 296.299 178.362 296.374 178.467 296.6C178.573 296.826 178.497 297.097 178.272 297.202C172.342 300.197 167.466 304.998 162.725 309.633C162.003 310.355 161.266 311.063 160.543 311.77C154.945 317.188 148.714 322.47 141.129 324.366C141.099 324.382 141.069 324.397 141.024 324.397Z" fill="#429777"/>
<path d="M170.646 310.613C170.525 310.613 170.405 310.568 170.315 310.462C170.149 310.282 170.164 309.996 170.345 309.83C181.165 300.003 195.071 292.884 210.587 289.272C212.544 288.821 214.831 288.339 217.089 288.535C219.572 288.746 221.739 289.784 223.033 291.409C223.184 291.605 223.154 291.891 222.958 292.042C222.762 292.192 222.476 292.162 222.326 291.966C221.182 290.537 219.241 289.619 216.998 289.423C214.876 289.242 212.769 289.679 210.783 290.145C195.432 293.727 181.662 300.755 170.947 310.492C170.871 310.583 170.766 310.613 170.646 310.613Z" fill="#429777"/>
<path d="M144.1 328.614C143.934 328.614 143.769 328.524 143.693 328.358C143.588 328.132 143.693 327.862 143.919 327.756C152.181 323.949 159.751 318.862 166.403 312.661C166.584 312.496 166.87 312.496 167.035 312.676C167.201 312.857 167.201 313.143 167.02 313.309C160.293 319.584 152.648 324.716 144.31 328.569C144.22 328.599 144.16 328.614 144.1 328.614Z" fill="#429777"/>
<path d="M224.636 292.63C222.845 292.63 221.175 291.923 220.197 290.674C220.046 290.478 220.076 290.192 220.272 290.042C220.468 289.891 220.754 289.922 220.904 290.117C221.912 291.381 223.794 291.983 225.705 291.637C227.646 291.291 229.347 290.117 230.611 289.124C233.531 286.851 237.218 283.074 238.196 277.972C238.241 277.731 238.482 277.566 238.723 277.611C238.964 277.656 239.129 277.897 239.084 278.138C238.046 283.51 234.208 287.468 231.168 289.831C229.828 290.87 228.007 292.119 225.87 292.51C225.449 292.6 225.043 292.63 224.636 292.63Z" fill="#429777"/>
<path d="M137.298 322.172C137.192 322.172 137.072 322.126 136.997 322.051C116.544 303.465 89.4549 286.399 66.2936 277.55C66.1431 277.489 66.0378 277.354 66.0077 277.203C65.9776 277.053 66.0378 276.887 66.1582 276.782C74.902 269.393 80.0339 263.087 84.9852 256.977C90.3429 250.37 95.4146 244.139 104.399 237.713C116.228 229.255 128.358 229.632 142.429 230.068C144.371 230.128 146.342 230.189 148.374 230.234C149.834 220.436 155.176 210.895 162.731 204.634C174.861 194.581 187.006 188.546 198.82 186.725C200.536 186.454 202.312 186.274 204.027 186.078C209.807 185.461 215.781 184.814 221.124 181.202C221.274 181.097 221.47 181.097 221.62 181.187C247.024 196.944 275.317 211.482 305.733 224.409C305.868 224.47 305.958 224.575 305.988 224.71C306.019 224.846 305.988 224.996 305.913 225.102C301.188 231.107 293.347 232.882 285.054 234.297L271.57 236.615C262.269 238.21 251.72 240.016 243.232 245.494C235.767 250.325 230.123 258.015 227.746 266.578C225.488 274.735 226.692 283.178 230.951 289.183C231.057 289.333 231.057 289.544 230.951 289.695C230.846 289.845 230.65 289.92 230.47 289.875C226.391 288.792 222.433 287.046 218.611 285.36C213.313 283.028 207.835 280.605 202.041 280.003C192.605 279.009 182.1 282.952 172.438 291.079C166.81 295.82 164.101 299.326 161.708 302.427C160.549 303.932 159.436 305.361 158.096 306.806C157.599 307.333 157.088 307.905 156.561 308.492C152.272 313.247 146.403 319.779 137.388 322.126C137.373 322.172 137.343 322.172 137.298 322.172ZM67.332 276.978C90.3579 285.917 117.131 302.818 137.433 321.224C146.041 318.891 151.519 312.811 155.929 307.92C156.456 307.333 156.967 306.761 157.464 306.219C158.773 304.804 159.872 303.39 161.016 301.9C163.439 298.769 166.178 295.218 171.882 290.417C181.724 282.125 192.484 278.121 202.161 279.13C208.091 279.747 213.644 282.2 219.002 284.563C222.418 286.068 225.94 287.633 229.552 288.701C225.699 282.561 224.691 274.314 226.888 266.353C229.311 257.579 235.105 249.693 242.75 244.757C251.389 239.173 262.029 237.352 271.42 235.742L284.904 233.424C292.805 232.07 300.27 230.399 304.83 225.011C274.67 212.174 246.603 197.742 221.395 182.105C215.932 185.702 209.942 186.349 204.133 186.981C202.432 187.162 200.671 187.357 198.971 187.613C187.322 189.419 175.328 195.379 163.318 205.327C155.839 211.527 150.556 221.038 149.217 230.745C149.187 230.971 148.991 231.167 148.765 231.137C146.598 231.091 144.491 231.031 142.414 230.971C128.524 230.535 116.514 230.173 104.941 238.451C96.0617 244.802 91.0351 250.987 85.7076 257.549C80.8165 263.538 75.7899 269.739 67.332 276.978Z" fill="#429777"/>
<path d="M70.4196 284.066C70.224 284.066 70.0434 283.945 69.9832 283.749C69.2608 281.402 67.9515 279.265 66.2058 277.549C66.0252 277.368 66.0252 277.083 66.2058 276.917C66.3864 276.751 66.6723 276.736 66.8378 276.917C68.6889 278.738 70.0735 281.01 70.841 283.509C70.9163 283.749 70.7808 284.005 70.54 284.066C70.5099 284.066 70.4648 284.066 70.4196 284.066Z" fill="#429777"/>
<path d="M145.868 332.664C145.687 332.664 145.522 332.559 145.446 332.378C143.821 328.21 140.841 324.568 137.079 322.129C136.868 321.994 136.808 321.723 136.943 321.512C137.079 321.302 137.365 321.242 137.56 321.377C141.488 323.905 144.589 327.698 146.289 332.047C146.38 332.273 146.259 332.544 146.033 332.634C145.973 332.649 145.928 332.664 145.868 332.664Z" fill="#429777"/>
<path d="M298.578 251.231C298.397 251.231 298.231 251.126 298.156 250.945C296.215 246.114 297.554 240.817 299.014 237.205C299.947 234.872 301.151 232.645 302.31 230.478C303.288 228.657 304.296 226.776 305.139 224.864C305.244 224.639 305.5 224.533 305.726 224.639C305.952 224.744 306.057 225 305.952 225.226C305.094 227.167 304.086 229.063 303.092 230.899C301.949 233.036 300.76 235.264 299.842 237.536C298.442 240.983 297.163 246.054 298.984 250.599C299.074 250.825 298.969 251.096 298.728 251.186C298.698 251.216 298.638 251.231 298.578 251.231Z" fill="#429777"/>
<path d="M230.003 289.319C229.913 289.319 229.808 289.289 229.733 289.229C204.66 270.025 179.121 252.086 148.51 231.062C148.299 230.926 148.254 230.641 148.39 230.43C148.525 230.219 148.811 230.174 149.022 230.309C179.648 251.334 205.187 269.288 230.274 288.506C230.47 288.657 230.515 288.943 230.365 289.138C230.274 289.259 230.139 289.319 230.003 289.319Z" fill="#429777"/>
<path d="M215.423 255.986C215.378 255.986 215.332 255.986 215.302 255.971C215.061 255.896 214.926 255.655 215.001 255.414C216.898 248.943 221.909 243.916 225.521 240.71C238.042 229.559 254.085 222.154 270.685 219.867C270.926 219.837 271.166 220.002 271.196 220.258C271.227 220.499 271.061 220.74 270.805 220.77C254.371 223.027 238.494 230.356 226.108 241.388C222.586 244.533 217.68 249.424 215.844 255.67C215.799 255.865 215.618 255.986 215.423 255.986Z" fill="#429777"/>
<path d="M200.166 247.632C200.091 247.632 200.001 247.617 199.926 247.572C199.715 247.437 199.64 247.166 199.775 246.955C211.574 227.691 232.839 214.162 255.278 211.619C255.504 211.588 255.744 211.769 255.775 212.01C255.805 212.251 255.624 212.476 255.383 212.506C233.215 215.005 212.191 228.384 200.543 247.406C200.467 247.557 200.317 247.632 200.166 247.632Z" fill="#429777"/>
<path d="M185.858 240.345C185.798 240.345 185.752 240.33 185.692 240.315C185.467 240.224 185.346 239.969 185.436 239.728C187.679 233.934 191.667 228.727 196.678 225.054C196.874 224.904 197.16 224.949 197.311 225.145C197.461 225.34 197.416 225.626 197.22 225.777C192.344 229.344 188.461 234.415 186.279 240.044C186.204 240.239 186.038 240.345 185.858 240.345Z" fill="#429777"/>
<path d="M212.95 211.375C212.785 211.375 212.619 211.285 212.544 211.119C212.439 210.893 212.529 210.622 212.74 210.517C221.664 206.062 231.582 204.317 241.184 202.646C241.424 202.601 241.665 202.766 241.71 203.007C241.755 203.248 241.59 203.489 241.349 203.534C231.823 205.205 221.95 206.92 213.146 211.33C213.086 211.36 213.011 211.375 212.95 211.375Z" fill="#429777"/>
<path d="M174.143 232.372C174.083 232.372 174.022 232.357 173.962 232.327C173.736 232.222 173.631 231.966 173.736 231.74C175.798 227.075 178.928 222.831 182.766 219.46C182.947 219.294 183.233 219.309 183.398 219.505C183.564 219.685 183.549 219.971 183.353 220.137C179.606 223.418 176.566 227.556 174.564 232.101C174.474 232.267 174.308 232.372 174.143 232.372Z" fill="#429777"/>
<path d="M201.988 203.549C201.837 203.549 201.687 203.474 201.611 203.338C201.476 203.127 201.536 202.857 201.747 202.721C209.257 197.935 214.614 197.228 222.726 196.16L225.014 195.858C225.254 195.813 225.48 195.994 225.525 196.25C225.555 196.491 225.39 196.716 225.134 196.761L222.846 197.062C214.855 198.131 209.573 198.823 202.228 203.504C202.153 203.519 202.063 203.549 201.988 203.549Z" fill="#429777"/>
<path d="M138.712 301.673C138.622 301.673 138.517 301.643 138.442 301.583C138.246 301.432 138.201 301.146 138.351 300.951C142.896 294.931 147.592 288.715 153.28 283.523C162.325 275.246 173.959 269.647 186.074 267.751C186.299 267.706 186.555 267.887 186.585 268.127C186.63 268.368 186.45 268.609 186.209 268.639C174.275 270.52 162.807 276.028 153.898 284.185C148.269 289.332 143.604 295.518 139.089 301.492C138.983 301.613 138.848 301.673 138.712 301.673Z" fill="#429777"/>
<path d="M122.644 294.356C122.494 294.356 122.328 294.281 122.253 294.131C122.132 293.92 122.208 293.634 122.418 293.513C127.249 290.789 130.756 286.229 134.142 281.82C135.331 280.27 136.565 278.675 137.829 277.17C146.468 266.966 158.447 259.863 171.54 257.169C171.781 257.108 172.022 257.274 172.067 257.515C172.112 257.756 171.962 257.996 171.721 258.042C158.823 260.705 147.039 267.703 138.521 277.741C137.257 279.231 136.038 280.812 134.849 282.362C131.403 286.846 127.836 291.482 122.855 294.281C122.795 294.326 122.719 294.356 122.644 294.356Z" fill="#429777"/>
<path d="M108.283 284.412C108.103 284.412 107.922 284.307 107.862 284.111C107.772 283.885 107.892 283.614 108.133 283.539C112.994 281.763 116.531 277.76 120.323 273.125C120.474 272.929 120.76 272.899 120.955 273.065C121.151 273.215 121.181 273.501 121.015 273.697C117.133 278.452 113.506 282.531 108.434 284.397C108.389 284.412 108.329 284.412 108.283 284.412Z" fill="#429777"/>
<path d="M125.744 268.427C125.624 268.427 125.519 268.382 125.428 268.292C125.248 268.111 125.248 267.825 125.428 267.66C134.353 258.6 145.58 252.098 157.875 248.833C158.116 248.772 158.357 248.908 158.432 249.149C158.492 249.389 158.357 249.63 158.116 249.705C145.971 252.926 134.895 259.352 126.076 268.292C125.985 268.382 125.865 268.427 125.744 268.427Z" fill="#429777"/>
<path d="M96.1078 276.072C95.9573 276.072 95.8068 275.997 95.7165 275.846C95.581 275.636 95.6563 275.35 95.867 275.229C101.014 272.144 105.529 268.216 109.276 263.536L109.863 262.798C111.157 261.158 112.482 259.472 114.318 258.389C114.528 258.269 114.814 258.329 114.935 258.554C115.055 258.765 114.995 259.051 114.769 259.171C113.069 260.165 111.804 261.79 110.555 263.355L109.968 264.093C106.146 268.848 101.556 272.852 96.3185 275.997C96.2583 276.042 96.183 276.072 96.1078 276.072Z" fill="#429777"/>
<path d="M122.592 253.514C122.471 253.514 122.336 253.454 122.245 253.363C122.08 253.168 122.11 252.897 122.291 252.731C129.349 246.666 138.364 243.009 147.649 242.407C147.89 242.377 148.116 242.573 148.131 242.829C148.146 243.07 147.965 243.295 147.709 243.31C138.619 243.897 129.8 247.494 122.878 253.424C122.802 253.484 122.697 253.514 122.592 253.514Z" fill="#429777"/>
<path d="M159.406 207.116C162.537 201.217 167.352 195.137 174.019 194.73C179.377 194.399 184.991 196.205 189.385 199.275C198.731 205.792 206.737 211.571 217.242 216.01C212.697 215.469 209.326 216.311 204.781 215.77C205.488 218.524 208.227 225.055 208.227 225.055C208.227 225.055 191.04 211.631 181.604 207.011C177.977 205.235 174.17 203.61 170.152 203.339C166.118 203.068 161.784 204.347 159.406 207.116Z" fill="white"/>
<path d="M208.228 225.492C208.138 225.492 208.033 225.462 207.957 225.402C207.792 225.266 190.711 211.947 181.41 207.418C177.888 205.702 174.066 204.061 170.123 203.791C165.969 203.505 161.891 204.919 159.769 207.403C159.618 207.583 159.362 207.613 159.167 207.478C158.971 207.342 158.911 207.102 159.016 206.891C163.275 198.869 168.317 194.61 174.006 194.264C179.258 193.948 184.977 195.634 189.657 198.899L191.267 200.013C200.026 206.138 207.596 211.421 217.439 215.574C217.649 215.665 217.755 215.89 217.695 216.101C217.634 216.312 217.424 216.462 217.198 216.432C214.955 216.161 212.969 216.237 211.043 216.312C209.267 216.387 207.446 216.447 205.414 216.252C206.302 219.201 208.635 224.785 208.65 224.845C208.725 225.041 208.665 225.251 208.514 225.372C208.424 225.462 208.319 225.492 208.228 225.492ZM169.054 202.858C169.43 202.858 169.792 202.873 170.168 202.903C174.276 203.189 178.174 204.859 181.786 206.62C189.642 210.458 202.931 220.45 207.16 223.686C206.302 221.564 204.842 217.847 204.33 215.89C204.3 215.74 204.33 215.589 204.421 215.484C204.511 215.379 204.662 215.304 204.812 215.334C207.054 215.605 209.041 215.529 210.967 215.454C212.156 215.409 213.375 215.364 214.654 215.394C205.85 211.376 198.777 206.424 190.696 200.781L189.085 199.667C184.57 196.507 179.062 194.881 174.006 195.197C168.272 195.558 163.952 200.359 161.048 205.085C163.245 203.655 166.089 202.858 169.054 202.858Z" fill="#429777"/>
<path d="M146.046 335.854C145.64 335.854 145.249 335.718 144.918 335.462C121.771 316.831 97.8275 297.583 69.9858 285.874C69.0677 285.483 68.6313 284.429 69.0226 283.511C69.4139 282.593 70.4673 282.157 71.3854 282.548C99.2422 294.257 123.081 313.264 146.092 331.775C167.989 315.552 192.143 301.194 217.908 289.08C218.676 288.718 219.579 288.944 220.09 289.606C222.333 292.496 226.517 293.85 230.038 292.827C233.56 291.804 236.359 288.417 236.705 284.775C236.765 284.143 236.765 283.451 236.765 282.729C236.765 280.787 236.78 278.59 238.03 276.664C238.963 275.219 240.407 274.301 241.461 273.639C259.34 262.291 278.889 254.195 299.552 249.604C300.515 249.394 301.494 249.996 301.704 250.974C301.915 251.952 301.313 252.915 300.335 253.126C280.063 257.626 260.905 265.557 243.387 276.679C242.349 277.341 241.521 277.898 241.054 278.62C240.377 279.659 240.377 281.148 240.377 282.729C240.377 283.496 240.377 284.294 240.287 285.107C239.79 290.238 235.998 294.829 231.031 296.273C226.547 297.568 221.475 296.198 218.209 292.902C192.67 305.002 168.756 319.329 147.115 335.477C146.814 335.733 146.438 335.854 146.046 335.854Z" fill="#317159"/>
<path d="M232.276 287.952C232.065 287.952 231.885 287.801 231.84 287.59C229.688 276.664 232.517 264.911 239.41 256.167C246.302 247.423 257.063 241.93 268.199 241.479C268.44 241.479 268.651 241.659 268.666 241.915C268.681 242.171 268.485 242.366 268.23 242.382C257.364 242.818 246.844 248.176 240.117 256.724C233.375 265.272 230.606 276.74 232.713 287.41C232.758 287.651 232.607 287.891 232.351 287.937C232.336 287.952 232.306 287.952 232.276 287.952Z" fill="#429777"/>
<path d="M280.241 241.282C279.654 241.282 279.082 241.266 278.495 241.236C278.239 241.221 278.059 241.011 278.059 240.77C278.074 240.529 278.254 240.303 278.525 240.333C285.96 240.665 293.62 238.798 300.061 235.051C300.272 234.931 300.558 234.991 300.678 235.217C300.799 235.427 300.723 235.713 300.513 235.834C294.433 239.37 287.299 241.282 280.241 241.282Z" fill="#429777"/>
<path d="M234.031 286.367H234.016C233.76 286.352 233.58 286.142 233.595 285.901C234.392 270.023 245.484 255.47 260.579 250.489C260.819 250.414 261.075 250.534 261.15 250.775C261.226 251.016 261.105 251.272 260.864 251.347C246.116 256.208 235.28 270.445 234.498 285.946C234.467 286.187 234.272 286.367 234.031 286.367Z" fill="#429777"/>
<path d="M285.872 246.971C285.661 246.971 285.48 246.836 285.435 246.625C285.375 246.385 285.525 246.144 285.781 246.084C289.438 245.256 293.487 244.127 297.49 242.818C297.731 242.743 297.986 242.878 298.062 243.104C298.137 243.345 298.002 243.6 297.776 243.676C293.742 244.985 289.664 246.129 285.992 246.956C285.947 246.971 285.917 246.971 285.872 246.971Z" fill="#429777"/>
<path d="M235.924 284.743C235.894 284.743 235.864 284.743 235.833 284.728C235.593 284.683 235.427 284.442 235.472 284.202C236.887 276.511 242.335 269.137 250.386 263.975C257.806 259.204 266.234 255.336 274.12 253.064C277.31 252.146 280.23 251.454 283.044 250.791C287.393 249.768 291.908 248.7 297.492 246.743C297.732 246.653 297.988 246.788 298.064 247.014C298.154 247.255 298.018 247.511 297.793 247.586C292.149 249.557 287.634 250.626 283.255 251.664C280.456 252.327 277.551 253.019 274.375 253.922C266.58 256.164 258.242 260.002 250.883 264.727C243.027 269.769 237.745 276.918 236.36 284.367C236.315 284.593 236.134 284.743 235.924 284.743Z" fill="#429777"/>
<path d="M266.952 250.175C266.741 250.175 266.545 250.025 266.515 249.799C266.47 249.558 266.636 249.317 266.891 249.287C269.329 248.881 271.572 248.565 273.724 248.249C275.876 247.933 278.118 247.617 280.541 247.211C280.797 247.165 281.023 247.331 281.053 247.587C281.098 247.828 280.933 248.068 280.677 248.098C278.239 248.505 275.996 248.821 273.844 249.137C271.692 249.453 269.45 249.769 267.027 250.175C266.997 250.175 266.982 250.175 266.952 250.175Z" fill="#429777"/>
<path d="M183.958 293.348C183.822 293.348 183.702 293.288 183.611 293.183C183.446 292.987 183.476 292.701 183.672 292.55C188.819 288.231 195.591 287.253 203.281 286.501C206.276 286.2 209.376 285.899 212.461 286.215C217.578 286.726 222.274 288.878 226.819 290.955C227.044 291.061 227.15 291.331 227.044 291.557C226.939 291.783 226.668 291.888 226.443 291.783C221.973 289.736 217.338 287.629 212.371 287.118C209.376 286.817 206.321 287.118 203.371 287.404C195.847 288.141 189.21 289.104 184.258 293.258C184.168 293.318 184.063 293.348 183.958 293.348Z" fill="#429777"/>
<path d="M141.024 324.397C140.828 324.397 140.633 324.261 140.587 324.05C140.527 323.81 140.678 323.569 140.919 323.509C148.293 321.658 154.418 316.465 159.926 311.138C160.649 310.431 161.386 309.723 162.108 309.001C166.879 304.32 171.83 299.474 177.865 296.404C178.091 296.299 178.362 296.374 178.467 296.6C178.573 296.826 178.497 297.097 178.272 297.202C172.342 300.197 167.466 304.998 162.725 309.633C162.003 310.355 161.266 311.063 160.543 311.77C154.945 317.188 148.714 322.47 141.129 324.366C141.099 324.382 141.069 324.397 141.024 324.397Z" fill="#429777"/>
<path d="M170.646 310.613C170.525 310.613 170.405 310.568 170.315 310.462C170.149 310.282 170.164 309.996 170.345 309.83C181.165 300.003 195.071 292.884 210.587 289.272C212.544 288.821 214.831 288.339 217.089 288.535C219.572 288.746 221.739 289.784 223.033 291.409C223.184 291.605 223.154 291.891 222.958 292.042C222.762 292.192 222.476 292.162 222.326 291.966C221.182 290.537 219.241 289.619 216.998 289.423C214.876 289.242 212.769 289.679 210.783 290.145C195.432 293.727 181.662 300.755 170.947 310.492C170.871 310.583 170.766 310.613 170.646 310.613Z" fill="#429777"/>
<path d="M144.1 328.614C143.934 328.614 143.769 328.524 143.693 328.358C143.588 328.132 143.693 327.862 143.919 327.756C152.181 323.949 159.751 318.862 166.403 312.661C166.584 312.496 166.87 312.496 167.035 312.676C167.201 312.857 167.201 313.143 167.02 313.309C160.293 319.584 152.648 324.716 144.31 328.569C144.22 328.599 144.16 328.614 144.1 328.614Z" fill="#429777"/>
<path d="M224.636 292.63C222.845 292.63 221.175 291.923 220.197 290.674C220.046 290.478 220.076 290.192 220.272 290.042C220.468 289.891 220.754 289.922 220.904 290.117C221.912 291.381 223.794 291.983 225.705 291.637C227.646 291.291 229.347 290.117 230.611 289.124C233.531 286.851 237.218 283.074 238.196 277.972C238.241 277.731 238.482 277.566 238.723 277.611C238.964 277.656 239.129 277.897 239.084 278.138C238.046 283.51 234.208 287.468 231.168 289.831C229.828 290.87 228.007 292.119 225.87 292.51C225.449 292.6 225.043 292.63 224.636 292.63Z" fill="#429777"/>
<path d="M137.298 322.172C137.192 322.172 137.072 322.126 136.997 322.051C116.544 303.465 89.4549 286.399 66.2936 277.55C66.1431 277.489 66.0378 277.354 66.0077 277.203C65.9776 277.053 66.0378 276.887 66.1582 276.782C74.902 269.393 80.0339 263.087 84.9852 256.977C90.3429 250.37 95.4146 244.139 104.399 237.713C116.228 229.255 128.358 229.632 142.429 230.068C144.371 230.128 146.342 230.189 148.374 230.234C149.834 220.436 155.176 210.895 162.731 204.634C174.861 194.581 187.006 188.546 198.82 186.725C200.536 186.454 202.312 186.274 204.027 186.078C209.807 185.461 215.781 184.814 221.124 181.202C221.274 181.097 221.47 181.097 221.62 181.187C247.024 196.944 275.317 211.482 305.733 224.409C305.868 224.47 305.958 224.575 305.988 224.71C306.019 224.846 305.988 224.996 305.913 225.102C301.188 231.107 293.347 232.882 285.054 234.297L271.57 236.615C262.269 238.21 251.72 240.016 243.232 245.494C235.767 250.325 230.123 258.015 227.746 266.578C225.488 274.735 226.692 283.178 230.951 289.183C231.057 289.333 231.057 289.544 230.951 289.695C230.846 289.845 230.65 289.92 230.47 289.875C226.391 288.792 222.433 287.046 218.611 285.36C213.313 283.028 207.835 280.605 202.041 280.003C192.605 279.009 182.1 282.952 172.438 291.079C166.81 295.82 164.101 299.326 161.708 302.427C160.549 303.932 159.436 305.361 158.096 306.806C157.599 307.333 157.088 307.905 156.561 308.492C152.272 313.247 146.403 319.779 137.388 322.126C137.373 322.172 137.343 322.172 137.298 322.172ZM67.332 276.978C90.3579 285.917 117.131 302.818 137.433 321.224C146.041 318.891 151.519 312.811 155.929 307.92C156.456 307.333 156.967 306.761 157.464 306.219C158.773 304.804 159.872 303.39 161.016 301.9C163.439 298.769 166.178 295.218 171.882 290.417C181.724 282.125 192.484 278.121 202.161 279.13C208.091 279.747 213.644 282.2 219.002 284.563C222.418 286.068 225.94 287.633 229.552 288.701C225.699 282.561 224.691 274.314 226.888 266.353C229.311 257.579 235.105 249.693 242.75 244.757C251.389 239.173 262.029 237.352 271.42 235.742L284.904 233.424C292.805 232.07 300.27 230.399 304.83 225.011C274.67 212.174 246.603 197.742 221.395 182.105C215.932 185.702 209.942 186.349 204.133 186.981C202.432 187.162 200.671 187.357 198.971 187.613C187.322 189.419 175.328 195.379 163.318 205.327C155.839 211.527 150.556 221.038 149.217 230.745C149.187 230.971 148.991 231.167 148.765 231.137C146.598 231.091 144.491 231.031 142.414 230.971C128.524 230.535 116.514 230.173 104.941 238.451C96.0617 244.802 91.0351 250.987 85.7076 257.549C80.8165 263.538 75.7899 269.739 67.332 276.978Z" fill="#429777"/>
<path d="M70.4196 284.066C70.224 284.066 70.0434 283.945 69.9832 283.749C69.2608 281.402 67.9515 279.265 66.2058 277.549C66.0252 277.368 66.0252 277.083 66.2058 276.917C66.3864 276.751 66.6723 276.736 66.8378 276.917C68.6889 278.738 70.0735 281.01 70.841 283.509C70.9163 283.749 70.7808 284.005 70.54 284.066C70.5099 284.066 70.4648 284.066 70.4196 284.066Z" fill="#429777"/>
<path d="M298.578 251.231C298.397 251.231 298.231 251.126 298.156 250.945C296.215 246.114 297.554 240.817 299.014 237.205C299.947 234.872 301.151 232.645 302.31 230.478C303.288 228.657 304.296 226.776 305.139 224.864C305.244 224.639 305.5 224.533 305.726 224.639C305.952 224.744 306.057 225 305.952 225.226C305.094 227.167 304.086 229.063 303.092 230.899C301.949 233.036 300.76 235.264 299.842 237.536C298.442 240.983 297.163 246.054 298.984 250.599C299.074 250.825 298.969 251.096 298.728 251.186C298.698 251.216 298.638 251.231 298.578 251.231Z" fill="#429777"/>
<path d="M230.003 289.319C229.913 289.319 229.808 289.289 229.733 289.229C204.66 270.025 179.121 252.086 148.51 231.062C148.299 230.926 148.254 230.641 148.39 230.43C148.525 230.219 148.811 230.174 149.022 230.309C179.648 251.334 205.187 269.288 230.274 288.506C230.47 288.657 230.515 288.943 230.365 289.138C230.274 289.259 230.139 289.319 230.003 289.319Z" fill="#429777"/>
<path d="M215.423 255.986C215.378 255.986 215.332 255.986 215.302 255.971C215.061 255.896 214.926 255.655 215.001 255.414C216.898 248.943 221.909 243.916 225.521 240.71C238.042 229.559 254.085 222.154 270.685 219.867C270.926 219.837 271.166 220.002 271.196 220.258C271.227 220.499 271.061 220.74 270.805 220.77C254.371 223.027 238.494 230.356 226.108 241.388C222.586 244.533 217.68 249.424 215.844 255.67C215.799 255.865 215.618 255.986 215.423 255.986Z" fill="#429777"/>
<path d="M200.166 247.632C200.091 247.632 200.001 247.617 199.926 247.572C199.715 247.437 199.64 247.166 199.775 246.955C211.574 227.691 232.839 214.162 255.278 211.619C255.504 211.588 255.744 211.769 255.775 212.01C255.805 212.251 255.624 212.476 255.383 212.506C233.215 215.005 212.191 228.384 200.543 247.406C200.467 247.557 200.317 247.632 200.166 247.632Z" fill="#429777"/>
<path d="M185.858 240.345C185.798 240.345 185.752 240.33 185.692 240.315C185.467 240.224 185.346 239.969 185.436 239.728C187.679 233.934 191.667 228.727 196.678 225.054C196.874 224.904 197.16 224.949 197.311 225.145C197.461 225.34 197.416 225.626 197.22 225.777C192.344 229.344 188.461 234.415 186.279 240.044C186.204 240.239 186.038 240.345 185.858 240.345Z" fill="#429777"/>
<path d="M212.95 211.375C212.785 211.375 212.619 211.285 212.544 211.119C212.439 210.893 212.529 210.622 212.74 210.517C221.664 206.062 231.582 204.317 241.184 202.646C241.424 202.601 241.665 202.766 241.71 203.007C241.755 203.248 241.59 203.489 241.349 203.534C231.823 205.205 221.95 206.92 213.146 211.33C213.086 211.36 213.011 211.375 212.95 211.375Z" fill="#429777"/>
<path d="M174.143 232.372C174.083 232.372 174.022 232.357 173.962 232.327C173.736 232.222 173.631 231.966 173.736 231.74C175.798 227.075 178.928 222.831 182.766 219.46C182.947 219.294 183.233 219.309 183.398 219.505C183.564 219.685 183.549 219.971 183.353 220.137C179.606 223.418 176.566 227.556 174.564 232.101C174.474 232.267 174.308 232.372 174.143 232.372Z" fill="#429777"/>
<path d="M201.988 203.549C201.837 203.549 201.687 203.474 201.611 203.338C201.476 203.127 201.536 202.857 201.747 202.721C209.257 197.935 214.614 197.228 222.726 196.16L225.014 195.858C225.254 195.813 225.48 195.994 225.525 196.25C225.555 196.491 225.39 196.716 225.134 196.761L222.846 197.062C214.855 198.131 209.573 198.823 202.228 203.504C202.153 203.519 202.063 203.549 201.988 203.549Z" fill="#429777"/>
<path d="M138.712 301.673C138.622 301.673 138.517 301.643 138.442 301.583C138.246 301.432 138.201 301.146 138.351 300.951C142.896 294.931 147.592 288.715 153.28 283.523C162.325 275.246 173.959 269.647 186.074 267.751C186.299 267.706 186.555 267.887 186.585 268.127C186.63 268.368 186.45 268.609 186.209 268.639C174.275 270.52 162.807 276.028 153.898 284.185C148.269 289.332 143.604 295.518 139.089 301.492C138.983 301.613 138.848 301.673 138.712 301.673Z" fill="#429777"/>
<path d="M122.644 294.356C122.494 294.356 122.328 294.281 122.253 294.131C122.132 293.92 122.208 293.634 122.418 293.513C127.249 290.789 130.756 286.229 134.142 281.82C135.331 280.27 136.565 278.675 137.829 277.17C146.468 266.966 158.447 259.863 171.54 257.169C171.781 257.108 172.022 257.274 172.067 257.515C172.112 257.756 171.962 257.996 171.721 258.042C158.823 260.705 147.039 267.703 138.521 277.741C137.257 279.231 136.038 280.812 134.849 282.362C131.403 286.846 127.836 291.482 122.855 294.281C122.795 294.326 122.719 294.356 122.644 294.356Z" fill="#429777"/>
<path d="M108.283 284.412C108.103 284.412 107.922 284.307 107.862 284.111C107.772 283.885 107.892 283.614 108.133 283.539C112.994 281.763 116.531 277.76 120.323 273.125C120.474 272.929 120.76 272.899 120.955 273.065C121.151 273.215 121.181 273.501 121.015 273.697C117.133 278.452 113.506 282.531 108.434 284.397C108.389 284.412 108.329 284.412 108.283 284.412Z" fill="#429777"/>
<path d="M125.744 268.427C125.624 268.427 125.519 268.382 125.428 268.292C125.248 268.111 125.248 267.825 125.428 267.66C134.353 258.6 145.58 252.098 157.875 248.833C158.116 248.772 158.357 248.908 158.432 249.149C158.492 249.389 158.357 249.63 158.116 249.705C145.971 252.926 134.895 259.352 126.076 268.292C125.985 268.382 125.865 268.427 125.744 268.427Z" fill="#429777"/>
<path d="M96.1078 276.072C95.9573 276.072 95.8068 275.997 95.7165 275.846C95.581 275.636 95.6563 275.35 95.867 275.229C101.014 272.144 105.529 268.216 109.276 263.536L109.863 262.798C111.157 261.158 112.482 259.472 114.318 258.389C114.528 258.269 114.814 258.329 114.935 258.554C115.055 258.765 114.995 259.051 114.769 259.171C113.069 260.165 111.804 261.79 110.555 263.355L109.968 264.093C106.146 268.848 101.556 272.852 96.3185 275.997C96.2583 276.042 96.183 276.072 96.1078 276.072Z" fill="#429777"/>
<path d="M122.592 253.514C122.471 253.514 122.336 253.454 122.245 253.363C122.08 253.168 122.11 252.897 122.291 252.731C129.349 246.666 138.364 243.009 147.649 242.407C147.89 242.377 148.116 242.573 148.131 242.829C148.146 243.07 147.965 243.295 147.709 243.31C138.619 243.897 129.8 247.494 122.878 253.424C122.802 253.484 122.697 253.514 122.592 253.514Z" fill="#429777"/>
<path d="M159.406 207.116C162.537 201.217 167.352 195.137 174.019 194.73C179.377 194.399 184.991 196.205 189.385 199.275C198.731 205.792 206.737 211.571 217.242 216.01C212.697 215.469 209.326 216.311 204.781 215.77C205.488 218.524 208.227 225.055 208.227 225.055C208.227 225.055 191.04 211.631 181.604 207.011C177.977 205.235 174.17 203.61 170.152 203.339C166.118 203.068 161.784 204.347 159.406 207.116Z" fill="white"/>
<path d="M208.228 225.492C208.138 225.492 208.033 225.462 207.957 225.402C207.792 225.266 190.711 211.947 181.41 207.418C177.888 205.702 174.066 204.061 170.123 203.791C165.969 203.505 161.891 204.919 159.769 207.403C159.618 207.583 159.362 207.613 159.167 207.478C158.971 207.342 158.911 207.102 159.016 206.891C163.275 198.869 168.317 194.61 174.006 194.264C179.258 193.948 184.977 195.634 189.657 198.899L191.267 200.013C200.026 206.138 207.596 211.421 217.439 215.574C217.649 215.665 217.755 215.89 217.695 216.101C217.634 216.312 217.424 216.462 217.198 216.432C214.955 216.161 212.969 216.237 211.043 216.312C209.267 216.387 207.446 216.447 205.414 216.252C206.302 219.201 208.635 224.785 208.65 224.845C208.725 225.041 208.665 225.251 208.514 225.372C208.424 225.462 208.319 225.492 208.228 225.492ZM169.054 202.858C169.43 202.858 169.792 202.873 170.168 202.903C174.276 203.189 178.174 204.859 181.786 206.62C189.642 210.458 202.931 220.45 207.16 223.686C206.302 221.564 204.842 217.847 204.33 215.89C204.3 215.74 204.33 215.589 204.421 215.484C204.511 215.379 204.662 215.304 204.812 215.334C207.054 215.605 209.041 215.529 210.967 215.454C212.156 215.409 213.375 215.364 214.654 215.394C205.85 211.376 198.777 206.424 190.696 200.781L189.085 199.667C184.57 196.507 179.062 194.881 174.006 195.197C168.272 195.558 163.952 200.359 161.048 205.085C163.245 203.655 166.089 202.858 169.054 202.858Z" fill="#429777"/>
<path d="M142.232 208.273C142.217 208.273 142.202 208.273 142.187 208.273C141.946 208.243 141.75 208.033 141.78 207.777C142.518 199.981 145.136 192.381 149.35 185.774C149.486 185.563 149.772 185.503 149.967 185.639C150.178 185.774 150.238 186.045 150.103 186.256C145.979 192.742 143.406 200.207 142.683 207.867C142.668 208.108 142.473 208.273 142.232 208.273Z" fill="#429777"/>
<path d="M132.512 207.838C132.286 207.838 132.09 207.672 132.06 207.447C131.473 202.751 130.48 198.056 129.111 193.496C129.035 193.255 129.171 192.999 129.412 192.939C129.652 192.864 129.908 192.999 129.968 193.24C131.353 197.83 132.346 202.586 132.948 207.326C132.978 207.567 132.798 207.793 132.557 207.823C132.557 207.838 132.542 207.838 132.512 207.838Z" fill="#429777"/>
<path d="M122.746 215.349C122.595 215.349 122.46 215.274 122.369 215.138C119.992 211.451 115.612 209.043 111.233 208.983C110.992 208.983 110.781 208.772 110.781 208.532C110.781 208.291 110.992 208.08 111.233 208.08C115.988 208.14 120.533 210.654 123.122 214.642C123.257 214.852 123.197 215.123 122.986 215.259C122.926 215.334 122.836 215.349 122.746 215.349Z" fill="#429777"/>
</g>
<defs>
<clipPath id="clip0_6840_53290">
<rect width="546" height="335.759" fill="white" transform="translate(0 0.121094)"/>
</clipPath>
</defs>
</svg>
