<svg width="72" height="72" viewBox="0 0 72 72" fill="none" xmlns="http://www.w3.org/2000/svg">
<path d="M52.4478 20.162L28.8337 43.7762L15.9695 30.9478L10.917 36.0003L28.8337 53.917L57.5003 25.2503L52.4478 20.162ZM36.0003 0.166992C16.2203 0.166992 0.166992 16.2203 0.166992 36.0003C0.166992 55.7803 16.2203 71.8337 36.0003 71.8337C55.7803 71.8337 71.8337 55.7803 71.8337 36.0003C71.8337 16.2203 55.7803 0.166992 36.0003 0.166992ZM36.0003 64.667C20.162 64.667 7.33366 51.8387 7.33366 36.0003C7.33366 20.162 20.162 7.33366 36.0003 7.33366C51.8387 7.33366 64.667 20.162 64.667 36.0003C64.667 51.8387 51.8387 64.667 36.0003 64.667Z" fill="#429777"/>
</svg>
